# xmcd
#
# Track frame offsets:
# 182
# 24792
# 43015
# 62920
# 81345
# 96987
# 127712
# 142377
# 159572
# 179235
#
# Disc length: 2590 seconds
#
#
# Revision: 1
# Processed by: cddbd v1.5.2PL0 Copyright (c) Steve Scherf et al.
# Submitted via: FreeRIP 2.51 
#
DISCID=8c0a1c0a
DTITLE=The Stardust Swing Band - A Big Band Christmas
DYEAR=1993
DGENRE=Swing
TTITLE0=Joy to the World
TTITLE1=We Three Kings
TTITLE2=Silent Night
TTITLE3=Good King Wenceslas
TTITLE4=Deck the Halls
TTITLE5=Jingle Bells
TTITLE6=Go Tell It On the Mountain
TTITLE7=God Rest Ye, Merry Gentlemen
TTITLE8=The Holly and the Ivy
TTITLE9=Carol of the Bells
EXTD=
EXTT0=
EXTT1=
EXTT2=
EXTT3=
EXTT4=
EXTT5=
EXTT6=
EXTT7=
EXTT8=
EXTT9=
PLAYORDER=
